<?xml version="1.0" encoding="utf-8"?>
<!-- Generator: Adobe Illustrator 24.0.1, SVG Export Plug-In . SVG Version: 6.00 Build 0)  -->
<svg version="1.1" id="Layer_1" xmlns="http://www.w3.org/2000/svg" xmlns:xlink="http://www.w3.org/1999/xlink" x="0px" y="0px"
	 viewBox="0 0 953 296.47" style="enable-background:new 0 0 953 296.47;" xml:space="preserve">
<style type="text/css">
	.st0{fill:#CF3339;}
	.st1{fill:#F3C300;}
	.st2{fill:#6F7271;}
	.st3{fill:#F18A00;}
	.st4{fill:#CB007B;}
	.st5{fill:#A8AD00;}
	.st6{fill:#575A60;}
	.st7{fill:#00A0DF;}
</style>
<g>
	<g>
		<path class="st0" d="M218.31,91.7c2.55-2.46,1.05-5.71,0.25-8.08c-4.73-5.84-8.76-4.41-12.43-1.63c-1.45,2.24-3.73,5.3-1.65,8.36
			C208.84,93.95,213.39,93.8,218.31,91.7z"/>
		<g>
			<path class="st1" d="M692.22,126.65l-0.77-0.07c-0.18-0.03-0.91-0.33-0.91-0.33l-0.23-0.19c-0.86-0.43-0.19-1.13-0.19-1.13
				l0.94-0.94c0.26-0.39,0.8-0.64,0.8-0.64c0.25-0.15,0.48-0.27,0.8-0.43c0.49-0.25,1-0.48,1.59-0.74c0.61-0.29,0.19-0.07,0.86-0.39
				c0.1-0.05,0.19-0.09,0.28-0.13c-0.06-0.11-0.1-0.22-0.14-0.31c-1.22-2.37-2.46-5-3.79-7.32c-0.23-0.4-0.45-0.8-0.68-1.19
				l-0.34,0.19l-2.48,1.57l-1.41,1.01l-0.43,0.16l-0.81,0c-0.47,0.04-1.01-0.21-1.01-0.21c-0.49-0.05-0.69-0.73-0.69-0.73
				l-0.07-0.32l0.08-0.34l0.28-0.4l0.47-0.7l1.07-1.03c1.1-0.7,2.14-1.77,3.21-2.54c0.05-0.05,0.11-0.08,0.17-0.13
				c-1.87-3.21-3.96-6.37-6.63-8.87c-0.17,0.2-0.34,0.41-0.49,0.63c-1.07,1.57-2.67,2.84-3.7,4.44l-1.16,0.64
				c-0.61,0.35-0.94,0.03-0.94,0.03c-0.39-0.07-0.65-0.54-0.65-0.54l-0.18-0.35c-0.39-0.28-0.24-0.9-0.24-0.9l0.1-0.74l0.54-1.06
				c0.63-0.67,0.62-0.91,1.1-1.65l0.69-0.88c0.56-0.71,1.13-1.4,1.65-2.09c-1.96-1.07-4.99-2.28-6.64-2.48
				c-1.06-0.11-2.34,0.02-3.34,0.66c-0.4,1.01-0.72,2.11-0.98,3.15c-0.33,1.41-0.49,2.16-0.6,3.22c-0.03,0.13-0.15,0.74-0.28,1.13
				c-0.19,1.11-0.29,2.1-0.55,3.24c-0.19,0.88-0.42,1.82-0.61,2.58c-0.19,0.82-0.33,1.6-0.54,2.4c-0.43,1.89-0.8,3.71-1,5.64
				c-0.1,0.79-0.12,1.89-0.2,2.66c-0.07,0.81-0.29,1.79-0.27,2.74c0.06,1.74-0.39,3.22-0.28,4.9c0.08,1.55,0.46,3.49,1.74,4.58
				c0.61,0.51,1.45,1.06,2.18,1.43c1,0.53,2.28,0.71,3.4,1.09c0.92,0.33,1.98,0.52,3.1,0.47c1.42-0.04,3.05-0.87,4.39-1.27
				c3.42-0.99,6.89,0.53,10.1,1.07c0.62,0.1,1.24,0.23,1.87,0.39c0.94-0.32,1.9-0.7,2.39-1.19c1.25-1.19,3.35-3.46,3.61-5.03
				c0.25-1.54,0.23-3.19-0.07-4.76c-1.01,0.53-1.9,1.08-3.02,1.72C693.03,126.59,692.22,126.65,692.22,126.65z"/>
			<path class="st2" d="M720.19,91.75c-0.04-0.47-0.09-1.02-0.43-1.41c-0.25-0.25-1.31-0.9-1.58-0.98c-2-0.61-3.27,0.66-3.27,0.66
				l-0.73,0.53c-0.11,0.08-0.19,0.17-0.32,0.26c-0.24,0.18-0.46,0.27-0.75,0.47c-0.36,0.23-0.67,0.62-1.03,0.88
				c-0.9,0.73-2.15,1.62-2.98,2.42c-1.22,1.17-1.9,1.83-3.21,2.53c-0.54,0.3-0.91,0.73-1.31,1.05c-0.39,0.32-0.74,0.5-1.17,0.74
				c-1.31,0.68-2.55,1.37-3.75,2.26c-0.83,0.64-2.32,1.61-3.28,2.5c-0.47,0.43-0.86,0.86-1.29,1.13c-0.41,0.32-0.94,0.7-1.34,1.01
				c-0.49,0.38-0.93,0.57-1.35,0.98c-0.4,0.36-0.9,0.57-1.31,0.96c-0.67,0.63-1.49,1.16-2.27,1.69c-0.05,0.04-0.11,0.08-0.17,0.13
				c-1.07,0.77-2.11,1.84-3.21,2.54l-1.07,1.03l-0.47,0.7l-0.28,0.4l-0.08,0.34l0.07,0.32c0,0,0.2,0.68,0.69,0.73
				c0,0,0.54,0.25,1.01,0.21l0.81,0l0.43-0.16l1.41-1.01l2.48-1.57l0.34-0.19l3.25-2.01c1.99-1.11,3.19-2.33,4.97-3.29l0.38-0.23
				c0.32-0.18,0.96-0.44,1.29-0.61c1.87-0.94,2.69-1.4,4.23-2.5c1.31-0.91,2.83-1.93,4.25-2.81c0.78-0.51,1.54-0.8,2.22-1.38
				c0.09-0.12,0.21-0.2,0.31-0.28l4.98-3.03l2.36-1.95c0.24-0.16,0.47-0.33,0.69-0.48C720.47,93.59,720.34,92.78,720.19,91.75z"/>
			<path class="st2" d="M696.4,78.84c-0.29-0.27-0.7-0.66-1.08-0.75c-0.89-0.22-1.59,0.38-2.26,0.78c-0.56,0.32-1.32,0.68-1.68,1.18
				c-0.26,0.36-0.43,0.8-0.69,1.17c-0.24,0.32-0.45,0.64-0.69,0.96c-0.24,0.36-0.44,0.7-0.68,1.06c-0.27,0.38-0.38,0.69-0.73,1.06
				c-0.41,0.49-0.87,1.02-1.13,1.58c-0.2,0.44-0.56,0.84-0.88,1.22c-1.06,1.2-1.63,2.43-2.6,3.72c-0.4,0.53-0.95,1.11-1.21,1.68
				c-0.15,0.35-0.54,0.94-0.74,1.26c-0.31,0.51-0.61,0.94-1.07,1.4c-0.43,0.45-0.72,0.95-1.06,1.49c-0.36,0.56-0.56,0.86-0.89,1.28
				c-0.02,0.05-0.07,0.09-0.1,0.13c-0.53,0.68-1.09,1.38-1.65,2.09l-0.69,0.88c-0.48,0.74-0.48,0.99-1.1,1.65l-0.54,1.06l-0.1,0.74
				c0,0-0.16,0.62,0.24,0.9l0.18,0.35c0,0,0.25,0.47,0.65,0.54c0,0,0.33,0.32,0.94-0.03l1.16-0.64c1.03-1.6,2.63-2.87,3.7-4.44
				c0.15-0.22,0.32-0.43,0.49-0.63c0.86-1.13,1.89-2.19,2.6-3.41c0.38-0.65,0.88-1.32,1.34-1.95c1.07-1.39,2.14-2.71,3.31-3.99
				c1.13-1.22,2.22-2.51,3.05-3.85c0.7-1.02,1.81-1.73,2.53-2.7c0.49-0.65,0.98-1.28,1.18-2.03c0.27-0.9,0.66-1.78,0.54-2.76
				C696.72,79.52,696.68,79.11,696.4,78.84z"/>
			<path class="st2" d="M720.38,110.48c-0.22-0.57-0.72-0.87-1.41-0.84c-0.56,0.06-1.15,0.26-1.66,0.43
				c-0.53,0.17-1.08,0.4-1.6,0.68c-0.46,0.2-0.84,0.52-1.25,0.73c-1.01,0.5-2,0.96-2.83,1.57c-1.53,1.14-3.18,1.81-4.89,2.66
				c-1.45,0.7-2.86,1.58-4.19,2.46c-0.42,0.28-0.89,0.6-1.44,0.84c-2.56,1.11-2.83,1.43-4.25,2.02c-0.61,0.25-0.96,0.41-1.45,0.65
				c-0.1,0.04-0.18,0.08-0.28,0.13c-0.67,0.32-0.25,0.1-0.86,0.39c-0.6,0.25-1.1,0.48-1.59,0.74c-0.31,0.16-0.55,0.28-0.8,0.43
				c0,0-0.55,0.25-0.8,0.64l-0.94,0.94c0,0-0.67,0.71,0.19,1.13l0.23,0.19c0,0,0.74,0.29,0.91,0.33l0.77,0.07
				c0,0,0.81-0.06,1.07-0.23c1.12-0.64,2.02-1.19,3.02-1.72c0.73-0.37,1.52-0.73,2.49-1.1c1.39-0.52,2.86-1,4.17-1.62
				c2.31-1.09,4.61-2.42,6.93-3.24c1.36-0.48,2.92-1.06,4.25-1.85c1.15-0.67,2.49-1.17,3.72-1.62c0.67-0.26,0.94-0.37,1.42-0.84
				c0.43-0.39,0.85-0.79,1.16-1.31C720.79,112.48,720.65,111.2,720.38,110.48z"/>
			<path class="st2" d="M703.96,140.6c-1.97-0.95-4.52-1.58-6.48-2.44c-2.2-0.95-4.67-1.86-7.11-2.48
				c-0.64-0.16-1.25-0.29-1.87-0.39c-3.21-0.54-6.68-2.06-10.1-1.07c-1.34,0.4-2.97,1.23-4.39,1.27c-1.12,0.05-2.18-0.14-3.1-0.47
				c-1.12-0.37-2.4-0.55-3.4-1.09c-0.73-0.38-1.57-0.92-2.18-1.43c-1.28-1.09-1.65-3.03-1.74-4.58c-0.12-1.67,0.33-3.16,0.28-4.9
				c-0.02-0.94,0.2-1.93,0.27-2.74c0.08-0.77,0.1-1.87,0.2-2.66c0.2-1.93,0.57-3.75,1-5.64c0.21-0.8,0.35-1.58,0.54-2.4
				c0.2-0.77,0.43-1.71,0.61-2.58c0.27-1.14,0.36-2.13,0.55-3.24c0.14-0.39,0.26-1,0.28-1.13c0.12-1.06,0.27-1.81,0.6-3.22
				c0.26-1.04,0.58-2.14,0.98-3.15c0.19-0.46,0.37-0.93,0.59-1.36c0.9-1.84,1.5-4.06,2.5-5.97c0,0,0.6-0.97,0.72-1.27
				c0.15-0.28,0.35-0.65,0.35-0.65s0.37-0.54,0.78-1.18c0.57-0.9,0.48-0.57,0.8-1.19c0.16-0.15,0.28-0.34,0.36-0.54
				c0.18-0.23,0.33-0.43,0.37-0.74c0.12-0.64,0.04-1.38-0.3-1.92c-0.41-0.67-1.02-1.57-1.95-1.63c-0.82-0.04-1.77,0.48-2.4,0.89
				c-0.39,0.25-0.67,0.56-0.91,0.91c-0.98,0.99-1.71,2.55-2.07,3.67c-0.5,1.64-1.15,3.26-1.53,4.96c-0.43,1.75-1.2,2.81-1.72,4.49
				c-0.22,0.8-0.67,1.89-0.82,2.7c-0.12,0.7-0.28,2.12-0.27,2.77c-0.2,1.05-0.65,3.45-0.78,4.26c-0.35,2.1-0.56,4.06-1.2,6.13
				c-1.02,3.26-2.24,6.9-2.12,10.44c0.12,3.33-0.16,7.23,0.84,10.37c0.22,0.67,0.49,1.26,0.9,1.9c0.14,0.26,0.32,0.53,0.51,0.78
				c0.33,0.48,0.52,0.72,0.93,1.09c0.3,0.3,0.56,0.51,0.82,0.81c0.49,0.56,1.32,0.94,1.97,1.36c0.76,0.47,1.1,0.87,1.97,1.18
				c0.71,0.29,1.35,0.53,2.06,0.65c0.8,0.12,1.8,0.1,2.59,0c1.09-0.15,2.28-0.45,3.4-0.37c0.85,0.04,1.63,0.1,2.55,0.03
				c1.87-0.15,3.67-1.05,5.54-0.87c2.09,0.19,3.84,1.19,5.94,1.93c1.49,0.53,2.62,0.8,3.53,1.36c0.91,0.57,1.81,1.18,2.63,1.73
				c1.58,1.07,3.21,2.08,5.1,2.93c1.06,0.47,1.74,1,2.48,1.37c1.27,0.63,2.97,1.03,4.37,1.52c0.82,0.27,1.84,0.75,2.54,0.27
				c0.57-0.39,0.82-1.23,0.8-1.79C711.48,143.37,706.96,142.04,703.96,140.6z"/>
		</g>
		<path class="st0" d="M616.02,230.87l-1-0.02c-1.57,0.06-3.04,0.39-4.13,0.67c-0.84,0.23-1.72,0.29-2.57,0.35
			c-0.61,0.04-1.25,0.1-1.87,0.19l-1.31,0.28c-0.69,0.14-1.41,0.3-2.2,0.37l-2.27,0.15c-2.59,0.14-5.26,0.29-7.8,1.04
			c-1.52,0.42-3.04,1.07-4.51,1.67c0,0-0.3,0.12-0.49,0.2c0,0.04,0,0.21,0,0.25c0.19,0.06,0.37,0.13,0.57,0.2
			c1.35,0.45,2.91,1.12,4.35,1.34c2.88,0.44,5.31,1.55,8,2.38c1.64,0.49,1.34,0.68,2.98,1.06c1.9,0.45,1.49,0.5,3.37,0.93
			c1.19,0.26,1.07,0.72,2.28,0.9c0.71,0.11,1.38,0.23,2.07,0.39c0.35,0.09,0.74,0.28,0.97,0.34c1.03,0.26,1.3-0.67,1.3-0.67
			c-0.04-0.17,0.24-0.42,0.33-0.58c0.2-0.38,0.49-1.14,0.6-1.74c0.15-0.5,0.62-1.25,0.74-1.78c0.64-3.24,2.14-5.01,2.75-6.89
			c0.05-0.07,0.23-1.07,0.33-1.29c-0.08,0.03-0.7,0.19-0.7,0.19C617.23,230.95,616.61,230.91,616.02,230.87z"/>
		<path class="st3" d="M612.7,35.16c1.87-0.35,3.61,0.02,5.52,0.5l4.04,1.53c1.71,0.48,2.83,0.81,4.03,1.83l2.31,1.87
			c1.5,1.2,3.05,2.46,4.44,3.93c0.6,0.64,0.97,1.39,1.34,2.17l0.57,1.14c1.37,2.41,1.7,6.25,1.7,6.28c0.28,1.78,0.02,2.53-0.51,4.03
			l-0.69,2.03c-0.48,1.45-0.93,2.81-1.72,4.16c-1.06,1.79-2.77,3.5-3.95,4.6c-0.78,0.75-1.82,1.25-2.86,1.73l-2.11,1.12l-0.84,0.59
			l-1.76,1.09c-0.06,0.02-0.13,0.04-0.22,0.07l2.27,0.14l1.18,0.19c0.92,0.16,1.92,0.34,2.96,0.22c1.05-0.12,2-0.52,2.92-0.89
			l2.48-0.8l3.05-0.63c2.4-0.72,3.92-1.77,4.97-3.42l0.71-1.06c1.23-1.84,2.38-3.59,2.82-5.77l0.9-4.29l0.1-3.12v-2.85
			c0.05-1.51,0.1-2.93-0.28-4.48l-0.18-0.77c-0.53-2.23-1.12-4.78-2.4-6.59c-1.68-2.31-3.44-4.33-5.3-6.08
			c-1.66-0.77-3.37-1.41-5.05-1.92c-14.99-2.01-23.97,1.71-28.62,8.29C606.86,37.54,609.84,35.71,612.7,35.16z"/>
		<path class="st3" d="M651.3,50.62l0.21,1.27l0.2,1.06c0,0.01-0.13,2.91-0.14,3.01c-0.2,1.27-0.88,2.58-1.53,3.84l-0.81,1.66
			c-0.51,1.16-1.36,2.15-2.18,3.08l-1.33,1.6l-1.68,1.61l-0.86,0.72l-1.14,1.17l-1.69,1.6l-1,0.59l-1.71,1.14
			c-1.26,1.13-2.33,1.51-3.95,2.08l-0.41,0.16c-3.52,1.26-6.7,1.97-10.09,2.25c-4.2,0.37-8.92-0.02-14.8-1.19
			c-0.61-0.11-1.21-0.33-1.79-0.56c3.01,4.91,7.39,8.63,14.26,10.14c20.14,1.18,33.73-15.34,34.23-30.99
			c-0.5-4.73-2.27-8.7-4.76-11.99c0.47,1.25,0.82,2.5,0.88,3.68L651.3,50.62z"/>
		<path class="st3" d="M622.53,68.73c2.53-1.06,5.14-2.16,6.9-4.46l1.24-1.37c0.86-0.91,1.75-1.84,2.16-2.89
			c0.3-0.78,0.12-1.95,0-2.88l-0.1-0.76c-0.22-2.99-0.82-5.69-1.77-7.99c-0.76-1.86-1.69-3-2.93-4.43c-0.01-0.01-2.2-2.5-2.2-2.5
			c-0.07-0.08-0.38-0.36-0.38-0.36c-1.6-1.32-3.56-2.97-5.65-2.89l-4.25,0.37c-1.9,0.27-3.53,1.59-5.13,2.87l-1.46,1.15
			c-1.48,1.04-2.87,2.48-3.58,3.64l-1.85,3.08c-1.39,2.06-1.78,4.7-2.04,7.04c-0.27,2.46,0.37,4.81,1.73,6.44l0.8,1.05
			c0.75,1,1.6,2.12,2.59,2.77l2.37,0.99l2.97,1.7c3.41,1.82,6.58,1.13,10.3-0.45L622.53,68.73z"/>
		<path class="st2" d="M615.34,21.26l-4.93,1.54l-3.17,1.56c-1.64,0.81-3.5,1.84-4.9,3.46l-1.5,2.5c0,0-1.36,1.92-1.47,2.04
			l-0.77,1.47l-1.06,1.07c-2.03,2.7-3.07,5.68-4.01,9.35l-0.68,3.38l-0.07,3.12c-0.27,2.4-0.27,4.24,0.01,5.9l0.25,1.74l0.5,2.95
			l1.54,4.33c0.53,1.37,0.9,2.37,2.02,3.38l1.01,1.27c0.47,0.69,0.92,1.34,1.69,1.69l3.18,1.76c1.15,0.71,2.36,1.42,3.62,1.93
			c0.58,0.23,1.18,0.44,1.79,0.56c5.88,1.18,10.6,1.56,14.8,1.19c3.38-0.27,6.56-0.99,10.09-2.25l0.41-0.16
			c1.62-0.57,2.69-0.95,3.95-2.08l1.71-1.14l1-0.59l1.69-1.6l1.14-1.17l0.86-0.72l1.68-1.61l1.33-1.6c0.82-0.94,1.67-1.93,2.18-3.08
			l0.81-1.66c0.65-1.26,1.33-2.57,1.53-3.84c0.01-0.1,0.14-3,0.14-3.01l-0.2-1.06l-0.21-1.27l-0.09-4.05
			c-0.07-1.18-0.42-2.43-0.88-3.68c-0.54-1.41-2.07-4.57-2.07-4.57c-0.6-1.23-1.48-2.34-2.3-3.43l-1.94-2.57
			c-1.61-2.21-3.29-4.49-5.21-6.37c-0.89-0.85-2.26-1.24-3.5-1.56l-6.14-1.97c-2.5-0.85-5.74-1.79-8.67-1.6L615.34,21.26z
			 M611.94,69.3l-2.97-1.7l-2.37-0.99c-0.99-0.65-1.85-1.77-2.59-2.77l-0.8-1.05c-1.36-1.62-2-3.97-1.73-6.44
			c0.26-2.33,0.65-4.98,2.04-7.04l1.85-3.08c0.71-1.16,2.1-2.6,3.58-3.64l1.46-1.15c1.6-1.27,3.24-2.6,5.13-2.87l4.25-0.37
			c2.1-0.08,4.05,1.57,5.65,2.89c0,0,0.3,0.27,0.38,0.36c0,0,2.19,2.49,2.2,2.5c1.23,1.43,2.17,2.58,2.93,4.43
			c0.95,2.3,1.54,5,1.77,7.99l0.1,0.76c0.12,0.93,0.3,2.09,0,2.88c-0.41,1.04-1.3,1.98-2.16,2.89l-1.24,1.37
			c-1.76,2.3-4.37,3.4-6.9,4.46l-0.29,0.12C618.52,70.43,615.35,71.13,611.94,69.3z M646.35,51.55v2.85l-0.1,3.12l-0.9,4.29
			c-0.45,2.18-1.59,3.93-2.82,5.77l-0.71,1.06c-1.05,1.64-2.57,2.7-4.97,3.42l-3.05,0.63l-2.48,0.8c-0.92,0.37-1.86,0.77-2.92,0.89
			c-1.04,0.12-2.03-0.06-2.96-0.22l-1.18-0.19L622,73.82c0.09-0.03,0.16-0.05,0.22-0.07l1.76-1.09l0.84-0.59l2.11-1.12
			c1.04-0.48,2.08-0.97,2.86-1.73c1.18-1.1,2.89-2.81,3.95-4.6c0.79-1.35,1.24-2.72,1.72-4.16l0.69-2.03
			c0.53-1.49,0.79-2.25,0.51-4.03c0-0.03-0.33-3.87-1.7-6.28l-0.57-1.14c-0.36-0.78-0.74-1.52-1.34-2.17
			c-1.38-1.47-2.94-2.73-4.44-3.93l-2.31-1.87c-1.2-1.02-2.33-1.35-4.03-1.83l-4.04-1.53c-1.91-0.48-3.65-0.85-5.52-0.5
			c-2.86,0.54-5.84,2.37-8.18,4.83c-1.25,1.32-2.33,2.81-3.07,4.39c-1.38,2.97-2.84,6.45-2.4,10.08l0.1,1.01
			c0.12,1.39,0.24,2.69,0.88,3.96c0.45,0.87,0.64,1.93,0.81,2.86c0.3,1.71,1.01,3.32,1.87,4.8l-1.42-1.29l-2.4-2.25
			c-1.17-1.19-1.64-2.41-2.31-4.14l-1.35-2.38l-0.37-0.54c-0.5-0.75-0.48-1.93-0.47-2.96l0-3.25c0.33-2.11,1.2-4.03,2.05-5.91
			l0.74-1.65c0.59-1.37,1.29-2.27,2.08-3.3l2.55-3.06l0.89-1.4l1.09-1.67c0.7-0.77,1.71-1.51,2.69-2.22l1.13-0.84l3.55-2.46
			c2.26-1.23,4.5-2.33,7.28-2.47c0,0,3.96,0.02,4.01,0.02c0.2,0.03,4.98,1.01,6.86,1.98l1.85,1.11l1.15,0.77
			c2.08,1.24,4.03,2.72,5.88,4.46c1.86,1.75,3.62,3.77,5.3,6.08c1.28,1.82,1.88,4.36,2.4,6.59l0.18,0.77
			C646.45,48.63,646.4,50.04,646.35,51.55z"/>
		<path class="st4" d="M583.47,111.16c0.9-0.55,1.51-0.81,2.29-1.52c1.53-1.39,3.21-2.89,4.76-4.29c0.99-0.91,1.73-1.87,2.65-2.8
			c1.13-1.17,2.42-2.32,3.49-3.59c1.21-1.47,1.81-3.56,2.18-5.4c0.24-1.23,0.57-3.37-0.14-4.48c-0.54-0.83-3.73-1.55-4.01-0.26
			c-2.18-0.07-4.56,1.03-6.35,2.19c-1.12,0.7-1.91,1.7-2.83,2.7c-0.41,0.47-0.85,0.9-1.21,1.41c-0.27,0.4-0.74,0.75-0.97,1.13
			c-0.2,0.34-0.2,0.83-0.47,1.2c-0.19,0.32-0.46,0.54-0.63,0.86c-0.38,0.77-0.54,1.31-1.06,2.04c-0.82,1.19-2.02,1.9-3.01,2.9
			c-0.48,0.52-0.85,1.19-1.22,1.79c-0.69,1.16-1.5,2.1-2.25,3.19c-0.35,0.44-0.28,0.82-0.42,1.29c-0.58,1.72-1.5,2.77-2.42,4.31
			c-0.04,0.28-0.63,1.18-0.64,1.53c-0.03,0.42,0.92,1.67,1.09,1.88c0-0.01,0.01,0,0.02-0.01l1.86-0.6l3.27-1.21l4.66-2.87l0.58-0.34
			C582.58,112.16,582.56,111.95,583.47,111.16z"/>
		<path class="st5" d="M564.96,110.75c-0.22-0.24-0.5-0.33-0.72-0.53c-0.52-0.47-0.6-0.77-0.88-1.45c-0.58-1.41-1.46-2.27-2.5-3.32
			c-0.69-0.7-1.14-1.59-1.78-2.3c-1.05-1.16-2.76-1.68-4.05-2.55c-0.52-0.32-0.73-0.67-1.18-1.08c-1.03-0.94-2.57-1.57-3.75-2.27
			c-1.19-0.72-2.34-1.72-3.7-2.05c-0.95-0.24-1.99-0.14-2.97-0.31c-1.63-0.31-3.22-0.87-4.83-1.14c-1.98-0.34-3.95-0.71-5.93-0.87
			c-1.89-0.16-3.84-0.78-5.77-0.74c-0.92,0-2.12-0.13-2.89,0.42c-0.72,0.51-1.08,2.01-1.19,2.86c-0.36,2.31-0.25,5.26,0.43,7.39
			c0.16,0.55,0.27,0.91,0.57,1.36c0.76,1.12,1.34,2.53,2.2,3.55c0.87,1.04,1.7,2.06,2.46,3.24c0.81,1.25,2.15,2.76,2.92,3.3
			c0.82,0.58,2.52,1,3.35,1.63c0.34,0.27,0.42,0.12,0.76,0.44c0.74,0.67,1.72,1.11,2.6,1.45c2.81,1.13,5.61,2.28,8.36,3.54
			c2.81,1.26,5.72,1.68,8.64,0.95c1.9-0.45,3.78-0.78,5.59-1.27c1.45-0.4,2.77-1.27,4.04-2.12c0.83-0.58,1.75-1.41,2.23-2.42
			c0.12-0.25,0.5-0.94,0.5-1.26l-0.08-0.08C566.5,113.75,566.07,111.93,564.96,110.75z"/>
		<path class="st6" d="M558.52,134.73c-3.66,0-6.02,2.87-6.11,7.3v33.4c0,4.89-0.93,7.99-2.94,9.33l-2.38,1.67
			c-2,1.38-2.91,3.15-2.91,5.4c0,3.86,2.91,6.59,7.13,6.59c5.47,0,11.03-5.08,12.62-11.47c0.63-2.26,0.63-3.1,0.63-8.56v-36.35
			C564.56,137.69,562.17,134.73,558.52,134.73z"/>
		<path class="st6" d="M582.11,134.73c-3.56,0-5.94,2.87-6.05,7.3v33.7c0,4.3,2.49,7.2,6.15,7.2c3.56,0,5.93-2.82,6.02-7.2v-33.7
			C588.23,137.69,585.78,134.73,582.11,134.73z"/>
		<path class="st6" d="M465.54,134.73c-12.79,0-22.85,10.84-22.85,24.7v16.13c0,4.41,2.54,7.39,6.29,7.39c3.67,0,6.08-2.9,6.19-7.39
			v-16.49c0.06-6.41,4.48-11.24,10.37-11.24c5.61,0,10.09,4.81,10.19,10.93v16.8c0,4.41,2.49,7.39,6.24,7.39
			c3.67,0,6.07-2.9,6.19-7.39v-16.43C488.13,145.57,478.06,134.73,465.54,134.73z"/>
		<path class="st6" d="M621.16,134.73c-12.8,0-22.85,10.84-22.85,24.7v16.13c0,4.41,2.54,7.39,6.29,7.39c3.68,0,6.09-2.9,6.18-7.39
			v-16.49c0.08-6.41,4.49-11.24,10.38-11.24c5.6,0,10.09,4.81,10.2,10.93v16.8c0,4.41,2.48,7.39,6.23,7.39
			c3.65,0,6.08-2.9,6.18-7.39v-16.43C643.76,145.57,633.68,134.73,621.16,134.73z"/>
		<path class="st6" d="M328.85,134.73c-3.64,0-6.04,2.87-6.13,7.27v19.43c0,4.73-3.2,8.42-7.42,8.42c-2.82,0-5.54-1.81-6.65-4.49
			c-0.64-1.7-0.86-2.85-0.86-6.8V142c0-4.32-2.44-7.27-5.96-7.27c-0.02,0-0.02,0-0.06,0c-0.02,0-0.02,0-0.02,0
			c-3.63,0-6,2.87-6.09,7.27v19.43c0,4.73-3.21,8.42-7.42,8.42c-2.83,0-5.56-1.81-6.68-4.49c-0.62-1.7-0.81-2.85-0.81-6.8V142
			c0-4.32-2.47-7.27-6.13-7.27c-3.57,0-5.93,2.87-6.04,7.27v17.75c0,5.19,0.94,9.77,2.67,12.79c3.67,6.43,10.32,10.41,17.09,10.41
			c4.99,0,9.89-2.13,13.49-5.86c3.71,3.73,8.62,5.86,13.55,5.86c5.89,0,11.55-2.91,15.19-7.88c3.03-4.12,4.31-8.53,4.31-14.91V142
			C334.89,137.68,332.41,134.73,328.85,134.73z"/>
		<path class="st6" d="M392.5,165.67c2.7,10.25,11.35,17.61,21.69,17.61c12.79,0,22.88-10.83,22.88-24.72
			c0-12.98-10.35-23.84-22.78-23.84c-10.4,0-19.24,7.66-21.86,17.85h-7.58c-2.62-10.08-11.54-17.71-21.96-17.71
			c-12.43,0-22.67,10.92-22.67,24.12c0,13.58,10.05,24.47,22.57,24.47c10.56,0,19.23-7.44,21.97-17.78H392.5z M414.28,148.02
			c5.66,0,10.33,4.93,10.33,10.73c0,6.5-4.47,11.42-10.42,11.42c-5.66,0-10.24-4.92-10.24-11.13
			C403.94,152.95,408.62,148.02,414.28,148.02z M362.79,170.35c-5.66,0-10.24-4.95-10.24-11.15c0-6.11,4.68-11.05,10.34-11.05
			c5.66,0,10.33,4.94,10.33,10.74C373.22,165.4,368.73,170.35,362.79,170.35z"/>
		<path class="st6" d="M524.12,186.02v-6.74c9.5-2.74,16.35-11.32,16.35-21.7c0-12.8-10.05-22.85-22.94-22.85
			c-12.1,0-22.14,10.33-22.14,22.76c0,10.45,7.1,19.26,16.59,21.88v6.55c-9.4,2.64-16.46,11.55-16.46,21.94
			c0,12.46,10.14,22.69,22.4,22.69c12.62,0,22.67-10.05,22.67-22.59C540.59,197.4,533.73,188.74,524.12,186.02z M507.74,157.49
			c0-5.65,4.57-10.31,9.95-10.31c6.04,0,10.62,4.47,10.62,10.4c0,5.68-4.58,10.3-10.33,10.3
			C512.32,167.87,507.74,163.17,507.74,157.49z M518.09,218.2c-5.67,0-10.25-4.64-10.25-10.34c0-5.65,4.58-10.3,9.98-10.3
			c6.03,0,10.62,4.46,10.62,10.4C528.44,213.65,523.85,218.2,518.09,218.2z"/>
		<path class="st7" d="M247.99,139.72c-1.29-1.04-2.17-1.73-2.17-1.73c-2.21-1.76-4.13-3.06-6.35-4.82
			c-0.36-0.3-1.06-1.08-1.43-1.38c-0.65-0.52-1.31-1.05-1.96-1.56c-0.63-0.52-1.33-0.92-1.98-1.44c-0.47-0.38-0.9-0.9-1.39-1.29
			c-1.01-0.82-2.01-1.64-2.96-2.44c-1.08-0.88-2.13-1.56-3.14-2.42c-1.05-0.87-2.04-1.93-2.99-2.76l-0.81-0.67l-0.31,0.89
			c-0.46,1.29-0.47,2.76-0.45,4.19l-0.22,3.32c-1.28,8.07-4.03,18-6.72,27.6c6.03-1.45,9.22-3.07,15.72-4.96
			c3.76-1.1,6.67-2.82,10.22-4.27c3.84-1.58,6.42-1.86,10.07-3.73c-0.59-0.45-1.14-0.84-1.68-1.27
			C248.95,140.56,248.4,140.05,247.99,139.72z"/>
		<path class="st2" d="M218.04,114.34c0.57,1.9,0.91,3.8,0.98,3.96c0.02,1.31,0.05,2.64-0.04,3.92c-0.03,0.57,0,0.95-0.04,1.51
			c-0.06,0.46-0.2,1.07-0.27,1.54c-0.29,2.06-0.71,4.11-1.23,6.19c-0.32,1.24-0.67,2.5-1.04,3.77c-0.46,1.58-0.7,2.73-1.04,3.81
			c-0.3,0.93-0.76,2.03-1.07,2.99c-0.58,1.84-1.17,3.72-1.74,5.64c-0.69,2.37-0.99,4.89-1.55,7.4c-0.43,1.92-1.42,4.08-1.78,5.88
			c-0.25,1.25-0.65,2.4-0.8,3.47c-0.07,0.57,0.12,1.1,0,1.65c0.13,0.05,0.74,1.78,1.16,1.92c0.73,0.22,2.27-1.1,2.34-1.05
			c0.08-0.26,0.37-0.59,0.58-1.36c0.15-0.58,0.19-1.46,0.39-2.22c0.39-1.44,1.07-2.49,1.46-3.92l0.75-4.24
			c2.69-9.6,5.44-19.53,6.72-27.6l0.22-3.32c-0.02-1.43-0.01-2.9,0.45-4.19l0.31-0.89l0.81,0.67c0.95,0.83,1.94,1.9,2.99,2.76
			c1.02,0.86,2.06,1.53,3.14,2.42c0.95,0.8,1.95,1.63,2.96,2.44c0.49,0.39,0.92,0.91,1.39,1.29c0.65,0.52,1.34,0.92,1.98,1.44
			c0.65,0.52,1.31,1.04,1.96,1.56c0.37,0.3,1.07,1.08,1.43,1.38c2.21,1.75,4.14,3.06,6.35,4.82c0,0,0.88,0.7,2.17,1.73
			c0.41,0.33,0.96,0.84,1.45,1.25c0.55,0.44,1.09,0.82,1.68,1.27c0.14,0.13,0.31,0.24,0.47,0.36c0.3,0.24,0.57,0.59,0.88,0.82
			c0.34,0.29,0.73,0.47,1.06,0.75c0.97,0.75,1.95,1.8,2.77,2.46c0.55,0.45,1.01,0.57,1.44,0.89c0.79,0.63,1.3,1.04,1.36,1.1
			c0.16,0.05,0.85,0.05,1.31,0c0.62-0.09,0.98-0.39,0.98-0.39c0.43-0.25,0.91-1.31,1.06-2.05c0.08-0.38-0.48-0.95-0.43-1.02
			c-0.48-0.48-0.84-0.97-1.41-1.49c-0.59-0.54-1.58-1.14-2.25-1.74c-1.53-1.3-3.08-2.67-4.83-4.05c-0.64-0.51-1.61-1.04-2.27-1.54
			c-1.61-1.25-3.07-2.48-4.72-3.71c-1.69-1.24-3.34-2.59-4.94-3.76c-2.35-1.7-4.58-3.14-6.46-4.48c-0.65-0.45-1.11-0.88-1.72-1.29
			c-1.02-0.65-2.14-1.24-3.07-1.88c-0.26-0.19-0.4-0.36-0.65-0.54c-0.19-0.14-0.5-0.26-0.69-0.41c-0.87-0.63-1.73-1.31-2.61-2.1
			c-0.37-0.33-0.73-0.57-1.1-0.95c-0.5-0.51-1.01-1.15-1.52-1.75l-1.13-2.13l-1.12-2.09c0.6-0.23,1.2-0.48,1.8-0.7
			c1.01-0.36,1.81-0.71,3.07-1.33c1.19-0.58,2.62-0.99,3.81-1.63c1.17-0.65,2.09-1.48,3.26-2.22c1.52-0.95,3.05-1.99,4.57-3.13
			c1.08-0.82,2.29-1.48,3.74-2.76c1.15-1.03,2.5-2.6,3.68-3.76c1.3-1.29,2.17-2.5,3.38-3.92c0.36-0.4,1-0.92,1.37-1.35
			c2.39-2.81,4.66-5.86,6.41-8.88c1.17-2,2.13-3.99,2.76-5.91c0.73-2.18,0.86-4.11,0.66-6.04c-0.07-0.72-0.55-1.64-0.77-2.31
			c-1.56,0.02-2.61,0.09-3.65,0.54c-2.95,1.26-4.37,4.56-5.42,7.67c-0.35,0.98-0.92,2.07-1.28,3.08c-0.57,1.53-0.95,2.97-1.88,4.33
			c-0.54,0.79-1.64,1.66-2.33,2.44c-1.61,1.87-3.09,3.65-5.19,5.41c-0.83,0.71-1.48,1.58-2.32,2.26c-1.06,0.85-2.32,1.49-3.36,2.29
			c-1.66,1.27-3.26,2.5-4.7,3.66c-2.18,1.72-4.44,2.93-6.23,4c-1.23,0.75-2.38,1.38-3.58,2.03c-0.08-0.42-0.17-0.96-0.15-0.92
			c-0.09-0.6-0.69-2.24-1.31-3.68c-0.27-0.61-0.45-1.22-0.7-1.73c-0.35-0.73-0.72-1.29-0.87-1.71c-0.41-1.04-1.22-1.07-1.22-1.07
			s-0.56,0.09-0.99,0.35c-0.18,0.12-0.26,0.33-0.4,0.46c-0.03,0.22,0.12,0.81,0.22,1.33c0.11,0.54,0.18,1.03,0.27,1.47
			c0.15,0.64,0.18,1.57,0.46,2.39l0.43,2.43c0,0,0.71,2.21,0.78,2.4c-0.8,0.36-1.63,0.73-2.59,1.12c-0.74,0.32-2.09,0.72-2.9,1.06
			c-1.23,0.54-3.02,1.41-5.28,2.26c-1.1,0.41-2.51,0.73-3.65,1.17c-1.4,0.57-2.81,0.97-4.02,1.55c-0.69,0.34-1.3,0.85-1.88,1.17
			c-0.86,0.51-1.76,0.93-2.17,1.41c-0.7,0.77-0.43,1.54,0.76,2.13c0.79,0.39,2.77-0.25,2.77-0.25c1.49-0.41,2.95-0.79,4.39-1.17
			c1.49-0.4,3.01-0.63,4.46-1c1.27-0.34,2.45-0.79,3.68-1.13c2.81-0.76,5.54-1.56,8.21-2.44L218.04,114.34z"/>
		<path class="st0" d="M658.64,233.57c1.67,0.21,2.73,0.68,4.42,0.97c0.84,0.14,1.7,0.56,2.57,0.56c0.64,0,1.74,0.14,2.31,0.41h0.05
			c0.06,0.05,0.1,0.07,0.16,0.11c0.55,0.08,1.11,0.15,1.68,0.27c1.44,0.31,3.02,0.96,4.5,1.4c1.06,0.31,1.81,0.48,2.85,0.81
			c1.88,0.6,3.04,0.52,4.83,0.76c0.53,0.08,1.19,0.3,1.73,0.34c0,0,1.19,0.21,0.49-0.78c-1.16-1.27-1.94-1.72-2.97-3.07
			c-0.64-0.82-1.49-1.74-2.08-2.61c-1.18-1.73-1.81-2.7-2.85-4.54c-0.64-1.11-0.2-1.34-0.76-2.5c-0.72-1.5-1.88-4.04-2.4-5.64
			c-0.48-1.44-0.85-3.23-1.2-4.35c-0.55-1.71-0.64-4.35-1.01-6.09c-0.28-1.25-0.68-5.93-0.97-8.57c-0.14-1.31-0.04-2.55-0.06-3.82
			c-0.05-0.07-0.08-0.12-0.15-0.19c-0.19-0.23-0.51-0.8-1.64,0.02c-0.45,0.35-1.94,1.87-2.11,2.14c-0.1,0.16-1.1,1.88-1.17,2.06
			c-1.13,1.22-2.09,2.83-2.75,3.92c-3,5.03-5.42,8.95-6.9,11.23c-2.48,3.75-4.77,6.87-7.03,10.75c-0.84,1.43-1.6,2.77-0.47,3.81
			c0.9,0.8,3.06,1.27,4.48,1.78c0.98,0.38,1.95,0.7,2.91,1.01c0.13-0.1,0.27-0.19,0.42-0.23
			C656.39,233.3,657.77,233.46,658.64,233.57z"/>
		<path class="st7" d="M681.99,174.99c2.14-3.7-0.68-6.51-2.55-9.42c-5.38-2.6-11.46-2.6-14.12,2.91c-0.57,3.3-2.16,6.62,0.97,9.22
			C672.1,179.7,677.35,179.5,681.99,174.99z"/>
		<path class="st1" d="M595.92,204.78c-0.17,2.91-1.35,5.18-2.5,7.39c-0.76,1.44-1.53,2.91-2.03,4.57l-0.68,2.2l-0.82,2.7
			l-0.27,1.12l-0.29,1.27l-0.41,1.65l-0.25,1.04l-0.32,1.24l-0.46,1.77c-0.05,0.26-0.13,0.49-0.22,0.72
			c0.11,0.01,0.44,0.11,0.85,0.28c0.01,0,0.22-0.04,0.22-0.04c0.61-0.1,1.19-0.11,1.75-0.11c0.4-0.18,0.82-0.33,1.36-0.49
			c1.9-0.55,1.72-1.13,3.37-2.37c0.87-0.65,2.82-1.44,3.69-2.07c1.11-0.81,3.02-1.91,4.15-2.56l3.18-2.12
			c0.24-0.11,0.73-0.3,1.2-0.52c0,0,1.02-0.44,0.16-1.89c-0.96-1.22-2.24-2.79-2.72-3.45c-1.34-1.82-0.79-1.41-1.79-2.55
			c-0.63-0.67-1.12-2.11-1.81-2.74c-0.61-0.53-2.41-4.3-3.05-4.8c-1.23-1.02-1.78-2.91-3.03-3.72c0,0-0.01,0.02-0.02,0.03
			c0.59,0.73,0.77,1.75,0.77,2.72C595.94,204.3,595.93,204.56,595.92,204.78z"/>
		<path class="st5" d="M583.6,239.84c-0.22-0.61-0.52-1.42-0.7-1.89c-1.32,0.43-2.57,0.88-3.82,1.75l-0.5,0.36
			c-1.28,0.91-2.48,1.76-3.87,2.58l-1.08,0.58c-0.04,0.05-1.13,1.19-1.13,1.19l-1.82,2.01c-0.51,0.64-0.42,0.21-0.94,0.87
			l-2.76,2.28l-2.39,1.7c0,0-0.7,0.79-1.48,1.52c-0.58,0.52-1.32,1.04-1.34,1.06c-0.17,0.18-0.24,0.35-0.24,0.48
			c0,0.17,0.1,0.3,0.14,0.35l1.31,0.89c0.66,0.34,1.66,0.68,2.17,1.36l4.26,1.74l2.72,1.6c0,0,1.54,1.04,1.47,0.97
			c0,0,2.2,1.04,2.21,1.05l0.55,0.37c0,0,1.27,0.61,1.43,0.69c0.18,0.15,0.32,0.2,0.43,0.15c0.39-0.16,0.72-1.37,0.79-2.11
			c-0.02-1.2,0.39-2.2,0.77-3.14c0.35-0.89,0.72-1.8,0.76-2.88l0.64-2.13c0.57-1.6,1.36-3.78,1.35-5.21l0.33-2.11
			c0,0,0.71-3.73,0.95-4.91c-0.02-0.15-0.06-0.31-0.08-0.46C583.69,240.3,583.65,240.07,583.6,239.84z"/>
		<path class="st2" d="M625.72,228.35c-0.59-2.53-5.98-1.92-6.61-1.84l0,0c-0.54,0.08-1.04,0.18-1.52,0.32
			c-1.32,0.4-2.13,0.37-2.13,0.37c-0.94,0.09-1.94,0.18-2.9,0.33l-2.16,0.28c-1.25,0.15-2.44,0.28-3.69,0.65
			c-1.36,0.4-2.8,0.78-4.28,0.9c-0.86,0.07-1.62,0.05-2.35,0.03c-1.28-0.04-2.48-0.07-3.89,0.39c-0.78,0.25-1.56,0.37-2.36,0.49
			l-1.1,0.17c-0.69,0.13-2.17,0.16-2.24,0.16c-0.56,0-1.14,0.02-1.75,0.11c0,0-0.21,0.04-0.22,0.04c-0.41-0.17-0.75-0.27-0.85-0.28
			c0.1-0.23,0.17-0.46,0.22-0.72l0.46-1.77l0.32-1.24l0.25-1.04l0.41-1.65l0.29-1.27l0.27-1.12l0.82-2.7l0.68-2.2
			c0.5-1.65,1.26-3.13,2.03-4.57c1.15-2.21,2.33-4.47,2.5-7.39c0.01-0.23,0.02-0.48,0.02-0.72c0-0.97-0.19-1.99-0.77-2.72
			c-0.31-0.37-0.69-0.69-1.28-0.83l-0.58-0.26l-0.52,0.06c-0.71,0.08-1.59,0.18-2.08,0.9c-0.31,0.42-0.43,0.99-0.55,1.5l-0.42,1.43
			l-0.34,1.12l-0.26,1.19c-0.31,1.55-0.96,2.93-0.96,2.93c-0.21,0.42-0.43,0.86-0.6,1.4c-0.16,0.44-0.25,0.88-0.33,1.32
			c-0.11,0.51-0.21,1.03-0.46,1.56c-0.45,0.99-0.57,1.88-0.69,2.78c-0.09,0.69-0.18,1.34-0.41,2.04l-0.71,2.45l-0.46,1.66
			c-0.5,1.71-1.13,3.92-1.38,5.87c-0.86-0.56-1.52-1.06-1.99-1.56c0,0-3.44-3.46-4.23-4.5c-0.77-1-1.7-1.82-2.6-2.6
			c-0.53-0.47-1.08-0.92-1.59-1.45c-0.85-0.85-1.94-1.92-3.11-3.42c0,0-1.69-2.19-2.23-2.96c-0.46-0.7-0.93-1.31-1.53-2.04
			c-0.47-0.54-0.72-0.7-1.06-0.91l-0.57-0.34l-0.67-0.17c0,0-0.74,0.3-0.93,0.6c-0.21,0.32-0.27,0.66-0.27,0.98
			c0,0.24,0.04,0.46,0.06,0.59c0.18,0.75,0.61,1.15,1,1.5l0.42,0.39c0.58,0.69,0.96,1.56,1.36,2.51c0.35,0.82,0.71,1.66,1.24,2.39
			c0,0,2.22,3.37,2.88,3.9l0.92,1c0.35,0.44,0.65,0.99,0.98,1.55c0.48,0.85,0.96,1.71,1.63,2.32c0.37,0.34,0.88,1.03,1.31,1.56
			c0,0,2.46,3.12,3.11,4.24c0.34,0.55,0.62,0.96,0.92,1.34c-1.07,0.35-2.18,0.75-3.29,1.29c0,0-4.24,2.25-5.36,2.73
			c-0.79,0.33-1.63,0.6-2.45,0.85c-0.92,0.3-1.87,0.6-2.73,0.99c-0.94,0.43-1.73,0.98-2.52,1.52l-1.39,0.91
			c-0.79,0.46-3.93,1.92-4.6,2.3l-3.08,1.8c-2.3,1.26-3.94,2.18-4.27,4.56c-0.03,0.3-0.07,0.59-0.07,0.86c0,1.51,0.7,2.45,2.27,3.2
			c2.26,1.07,3.13,0.72,5.49-0.27l0.94-0.57c0.69-0.62,1.39-1.07,2.17-1.53l0.86-0.54c0,0,2.63-1.84,3.3-2.21l1.96-0.99
			c0.79-0.37,1.59-0.76,2.37-1.2c0.88-0.51,1.36-0.91,1.97-1.42l0.56-0.46c0.81-0.65,1.73-1.13,2.71-1.63l0.59-0.32l1.08-0.58
			c1.39-0.82,2.6-1.67,3.87-2.58l0.5-0.36c1.25-0.87,2.5-1.32,3.82-1.75c0.19,0.47,0.48,1.28,0.7,1.89
			c0.05,0.24,0.09,0.46,0.13,0.72c0.02,0.16,0.05,0.31,0.08,0.46c0.1,0.45,0.19,0.85,0.32,1.29l0.25,0.96
			c0.23,0.93,0.61,1.69,0.96,2.44c0.41,0.85,0.8,1.65,0.96,2.67c0.43,2.66,1.76,5.35,3.05,7.96c1.16,2.38,1.75,3.79,1.75,3.79
			c0.65,1.57,1.86,4.49,3.23,5.07c0.64,0.26,1,0.1,1.18-0.09c0.2-0.2,0.28-0.48,0.28-0.8c0-0.32-0.08-0.69-0.21-1.01l-0.46-1.09
			c-0.25-0.57-0.49-1.09-0.66-1.68l-0.75-2.28c-0.55-1.67-1.07-3.22-1.41-4.89c-0.09-0.47-0.27-0.95-0.43-1.43
			c-0.21-0.59-0.43-1.21-0.49-1.77c-0.13-1-0.43-1.92-0.7-2.8l-0.96-3.62c-0.24-1.03-0.5-2.11-0.83-3.19l-0.15-0.47
			c-0.43-1.33-0.86-2.72-0.88-4.05c0-0.04-0.01-0.21,0-0.25c0.19-0.08,0.49-0.2,0.49-0.2c1.46-0.61,2.98-1.26,4.51-1.67
			c2.55-0.75,5.22-0.91,7.8-1.04l2.27-0.15c0.8-0.07,1.52-0.23,2.2-0.37l1.31-0.28c0.62-0.1,1.26-0.15,1.87-0.19
			c0.85-0.06,1.73-0.12,2.57-0.35c1.09-0.28,2.56-0.62,4.13-0.67l1,0.02c0.6,0.04,1.22,0.08,1.79-0.07c0,0,1.36-0.42,1.88-0.41
			c0.73,0.01,1.3-0.01,1.98-0.08l0.58-0.04c1.07-0.05,2.7-0.13,3.3-0.93C625.74,229.07,625.81,228.73,625.72,228.35z"/>
		<path class="st2" d="M694.06,241.68c-0.3-0.76-0.64-1.19-1.35-1.69c-0.34-0.24-1.22-0.98-1.29-1.05
			c-1.14-0.97-2.22-2.02-3.24-3.13c-0.69-0.74-1.42-1.3-2.07-2.11c-0.62-0.81-1.15-1.87-1.73-2.72c-0.97-1.46-1.52-2.14-2.33-3.71
			c-0.38-0.71-1.16-2.32-1.5-3.04c-0.63-1.36-1.22-2.96-1.79-4.36c-0.3-0.72-0.3-1.57-0.57-2.31c-0.44-1.19-0.49-1.81-0.93-3.33
			c-0.3-1.03-0.7-3.66-0.94-4.71c-0.36-1.59-0.45-5.38-0.63-6.66c-0.27-2.02-0.4-4.01-0.39-5.9l-0.1-3.69l-0.46-2.75l-0.41-4.81
			c-1.02-2.43-2.27-1.85-3.15,0.09c-0.22,0.49-0.41,1.03-0.58,1.62c-0.1,0.42-0.2,0.86-0.27,1.3c-0.19,0.99-0.31,1.84-0.4,2.69
			c-0.19,1.83-0.01,5.76-0.01,5.82c0.02,1.27-0.08,2.5,0.06,3.82c0.29,2.64,0.69,7.32,0.97,8.57c0.37,1.74,0.46,4.37,1.01,6.09
			c0.35,1.12,0.73,2.91,1.2,4.35c0.52,1.59,1.68,4.14,2.4,5.64c0.56,1.15,0.12,1.39,0.76,2.5c1.04,1.84,1.67,2.81,2.85,4.54
			c0.59,0.87,1.43,1.79,2.08,2.61c1.03,1.35,1.81,1.8,2.97,3.07c0.7,0.99-0.49,0.78-0.49,0.78c-0.54-0.03-1.2-0.26-1.73-0.34
			c-1.79-0.24-2.96-0.15-4.83-0.76c-1.04-0.33-1.8-0.5-2.85-0.81c-1.48-0.44-3.06-1.1-4.5-1.4c-0.57-0.13-1.13-0.19-1.68-0.27
			c-0.06-0.04-0.1-0.06-0.16-0.11h-0.05c-0.57-0.27-1.67-0.41-2.31-0.41c-0.87,0-1.73-0.42-2.57-0.56
			c-1.69-0.29-2.75-0.75-4.42-0.97c-0.87-0.11-2.25-0.27-3.12-0.04c-0.15,0.03-0.29,0.13-0.42,0.23c-0.51,0.38-0.81,1.15-0.2,1.65
			c0.55,0.44,1.33,0.58,2.02,0.75c1.05,0.25,1.95,0.58,2.94,0.93c0.89,0.31,1.81,0.66,2.73,0.85c0.64,0.13,0.83,0.08,1.42,0.28
			c0.3,0.09,0.64,0.26,0.97,0.37c0.09,0.04,1.55,0.45,2.24,0.7c0.51,0.19,1.36,0.72,1.89,0.91c1.47,0.5,3.05,1,4.69,1.47
			c1.18,0.33,2.46,0.69,3.67,1.06c0.13,0.04,1.84,0.48,2.51,0.67c0.79,0.22,1.53,0.43,2.34,0.62c0.89,0.22,1.76,0.42,2.69,0.45
			c1.75,0.06,3.59,0.24,5.36,0.16C692.08,244.56,694.88,243.77,694.06,241.68z"/>
		<path class="st2" d="M600.43,88.06c-1.08-1.08-1.58-1.37-3.08-1.37c-0.98,0-1.43-0.31-2.37-0.21c-0.68,0.1-2.57,0.51-3.25,0.68
			c-1.6,0.42-2.36,1.39-3.84,2.01c-1.42,0.61-2.48,1.79-3.68,2.77c-1.37,1.13-2.34,2.83-3.54,4.12c-1.33,1.38-1.85,2.85-3.15,4.04
			c-1.22,1.11-2.39,2.7-3.23,4.19c-0.56,0.98-1.12,1.65-1.77,2.57c-0.4,0.55-0.59,1.2-1.03,1.84c-0.77,1.1-1.2,2.14-2.06,3.09
			c-0.29,0.31-1.52-2.35-1.52-2.35c-0.46-0.77-1.52-2.05-1.98-2.68c-0.42-0.58-0.73-1.26-1.32-1.73c-2.13-1.77-3.47-3.61-5.88-5.13
			c-1.1-0.67-1.56-1.26-3.48-2.72c0.05-0.05-2.74-2.14-3.8-2.75c-0.99-0.58-2.36-0.88-3.19-1.61c-0.5-0.46-0.78-0.82-1.49-1.12
			c-4.61-1.94-8.22-3.83-13.15-4.58c-1.53-0.22-3.07-0.76-4.71-0.68c-0.57,0.02-2.5,0.14-3.01,0.21c-0.79,0.14-2.41,0.65-3.06,1.04
			c-1.77,1.08-2.45,2.78-2.98,5.08c-0.24,1.06-0.07,2.34-0.07,3.45c0,0.72-0.13,2.1,0.03,2.94c0.07-0.05,0.14,1.89,0.2,1.85
			c0,0.64,0.15,0.87,0.3,1.52c0.18,0.62,0.47,1.2,0.63,1.86c0.23,0.93,0.82,1.33,1.15,2.23c0.3,0.79,0.57,0.69,0.84,1.46
			c0.6,1.68,1.78,2.71,2.78,4.11c0.72,1.01,1.64,1.87,2.34,2.55c0.48,0.5,1.15,1.14,1.7,1.57c0.57,0.4,1.18,0.6,1.73,1.13
			c0.71,0.62,3.84,3.3,4.81,3.86c0.94,0.53,5.13,1.68,6.02,1.92c1.57,0.43,3.18,0.77,4.85,1.08c1.85,0.31,3.32,0.29,5.15,0.49
			c1,0.1,2.03,0,3.07-0.04c0.75-0.04,1.44-0.2,2.16-0.3c1.13-0.15,2.07-0.28,3.13-0.77c0.91-0.42,1.77-0.87,2.69-1.35
			c0.82-0.42,1.75-0.98,2.41-1.55c0.52-0.45,0.86-1.07,1.38-1.52c0.58-0.51,0.81-0.62,1.15-1.3c1.21,0.44,1.14,1.96,1.42,2.59
			c0.29,0.68,0.44,0.94,0.48,1.74c0.02,0.59,0.25,1.15,0.27,1.69c0.06,1.25-0.11,2.09-0.3,3.3c-0.08,0.34-0.44,1.13-0.23,1.55
			c0.44,0.83,1.27-0.23,1.5-0.55c0.82-1.2,1.51-1.7,1.66-3.18c0.04-0.48,0.46-1.21,0.33-1.74c0.03-0.44-0.03-1.39,0.05-1.92
			l-0.13-0.96c-0.35-1.48-0.08-1.05-0.47-2.27c-0.13-0.38-0.39-0.65-0.66-0.98c-0.17-0.21-1.11-1.46-1.09-1.88
			c0.02-0.35,0.6-1.26,0.64-1.53c0.92-1.54,1.84-2.59,2.42-4.31c0.14-0.46,0.08-0.84,0.42-1.29c0.75-1.09,1.56-2.04,2.25-3.19
			c0.37-0.61,0.75-1.27,1.22-1.79c0.99-1.01,2.19-1.72,3.01-2.9c0.51-0.73,0.68-1.27,1.06-2.04c0.16-0.32,0.43-0.54,0.63-0.86
			c0.27-0.37,0.27-0.86,0.47-1.2c0.23-0.38,0.7-0.73,0.97-1.13c0.36-0.51,0.8-0.94,1.21-1.41c0.92-1,1.72-2,2.83-2.7
			c1.79-1.16,4.16-2.25,6.35-2.19c0.28-1.29,3.47-0.57,4.01,0.26c0.71,1.11,0.38,3.25,0.14,4.48c-0.37,1.83-0.97,3.93-2.18,5.4
			c-1.06,1.27-2.35,2.42-3.49,3.59c-0.92,0.93-1.66,1.89-2.65,2.8c-1.54,1.4-3.23,2.9-4.76,4.29c-0.77,0.71-1.39,0.97-2.29,1.52
			c-0.91,0.79-0.89,1-0.79,1.07c0.05,0.06,0.11,0.07,0.11,0.09c0.23-0.01,1.27-0.5,1.86-0.87c0.57-0.37,1.73-0.97,2.24-1.37
			c1.44-1.08,2.91-2.42,4.34-3.49c0.69-0.53,1.42-1.28,2.06-1.84c0.77-0.68,1.81-1.23,2.55-1.93c1.26-1.16,2.37-2.29,3.42-3.67
			c0.52-0.72,0.91-2.14,1.57-3.57c0.52-1.11,0.55-2.61,0.63-3.89C601.51,90.34,601.4,89.01,600.43,88.06z M566.97,116.45
			c-0.48,1.01-1.4,1.84-2.23,2.42c-1.27,0.86-2.59,1.73-4.04,2.12c-1.82,0.49-3.69,0.82-5.59,1.27c-2.92,0.73-5.83,0.31-8.64-0.95
			c-2.75-1.26-5.55-2.41-8.36-3.54c-0.88-0.35-1.87-0.78-2.6-1.45c-0.34-0.32-0.42-0.17-0.76-0.44c-0.83-0.63-2.53-1.06-3.35-1.63
			c-0.77-0.54-2.11-2.04-2.92-3.3c-0.76-1.19-1.59-2.21-2.46-3.24c-0.86-1.02-1.45-2.43-2.2-3.55c-0.3-0.45-0.41-0.81-0.57-1.36
			c-0.67-2.13-0.78-5.08-0.43-7.39c0.11-0.85,0.47-2.35,1.19-2.86c0.77-0.55,1.97-0.42,2.89-0.42c1.93-0.04,3.88,0.58,5.77,0.74
			c1.98,0.16,3.95,0.53,5.93,0.87c1.61,0.27,3.2,0.83,4.83,1.14c0.98,0.17,2.03,0.07,2.97,0.31c1.36,0.33,2.51,1.34,3.7,2.05
			c1.18,0.7,2.72,1.33,3.75,2.27c0.45,0.41,0.66,0.75,1.18,1.08c1.29,0.87,3,1.39,4.05,2.55c0.63,0.71,1.09,1.6,1.78,2.3
			c1.04,1.06,1.92,1.91,2.5,3.32c0.28,0.68,0.36,0.97,0.88,1.45c0.22,0.2,0.5,0.3,0.72,0.53c1.11,1.19,1.55,3,2.44,4.36l0.08,0.08
			C567.47,115.5,567.09,116.2,566.97,116.45z"/>
	</g>
	<g>
		<path class="st6" d="M376.8,220.07c0,1.51-1.14,2.62-2.61,2.62l0,0c-1.49,0-2.76-1.11-2.76-2.62V199.5c0-1.47,1.21-2.56,2.72-2.56
			l0,0c1.48,0,2.65,1.09,2.65,2.56V220.07z"/>
		<path class="st6" d="M354.12,229.29c0,0,15.92,0,16.02,0c1.35,0,1.28,1.29,1.28,1.29v7.71c0,1.5,1.23,2.69,2.75,2.69
			c1.47,0,2.62-1.19,2.62-2.69v-9.97c0-2.1-1.24-3.4-3.64-3.4h-19.04c-1.24,0-2.2,1.08-2.2,2.29
			C351.92,228.43,352.89,229.29,354.12,229.29z"/>
		<path class="st6" d="M417.82,217.41h-32.83c-1.25,0-2.2,1.03-2.2,2.27c0,1.26,0.95,2.25,2.2,2.25h13.53v3.12h-6.38
			c-0.96,0-3.07,0.64-3.07,3.24v8.83c0,2.5,2.05,3.23,2.97,3.23h18.76c0.89,0,2.94-0.75,2.94-3.15v-9.01c0-2.5-2.18-3.14-3.05-3.14
			h-6.37v-3.12h13.51c1.22,0,2.18-0.99,2.18-2.25C420,218.44,419.04,217.41,417.82,217.41z M408.05,230.58v4.23
			c0,0.83-0.86,1.02-1.14,1.02h-11.13c-0.29,0-1.15-0.2-1.15-1.19v-4c0-0.93,0.76-1.24,1.09-1.24h11.31
			C407.36,229.4,408.05,229.73,408.05,230.58z"/>
		<path class="st6" d="M413.76,209.9h-4.2v-6.6h3.54c1.22,0,2.19-1.02,2.19-2.29c0-1.24-0.97-2.26-2.19-2.26h-23.41
			c-1.2,0-2.16,1.02-2.16,2.26c0,1.27,0.96,2.29,2.16,2.29h3.04v6.6h-3.71c-1.18,0-2.19,0.91-2.19,2.15c0,1.26,1.01,2.28,2.19,2.28
			h24.74c1.21,0,2.21-1.02,2.21-2.28C415.98,210.81,414.97,209.9,413.76,209.9z M397.85,203.3h6.59l0.03,6.6h-6.62V203.3z"/>
		<path class="st6" d="M367.38,216.03c-3.64-2.18-8.33-6.51-8.33-11.79v-3.15l0,0c-0.09-1.59-1.3-2.82-2.81-2.82
			c-1.59,0-2.89,1.23-2.96,2.82l0,0v2.81c0,5.54-4.42,9.99-8.79,12.78l0.02,0.02c-0.76,0.74-0.77,2.13-0.12,3.02
			c0.93,1.39,2.42,1.36,3.57,0.61l0,0c0-0.01,0.03-0.01,0.05-0.04l0,0c1.93-1.24,3.35-2.49,4.81-3.91c1.67-1.69,3.1-3.42,3.43-4.33
			c0.41,0.97,1.39,2.3,3.29,4.23c1.41,1.27,2.79,2.32,4.72,3.44l0,0c1.11,0.68,2.51,0.66,3.49-0.66
			C368.44,218.14,368.28,216.6,367.38,216.03z"/>
		<g>
			<path class="st6" d="M284.28,215.76c6.06,0,10.94-4.54,10.94-9.94c0-5.39-4.87-9.84-10.94-9.84c-6.03,0-10.89,4.46-10.89,9.84
				C273.39,211.22,278.24,215.76,284.28,215.76z M284.28,200.52c3.14,0,5.54,2.36,5.54,5.3c0,2.98-2.47,5.32-5.54,5.32
				c-2.91,0-5.52-2.33-5.52-5.32C278.75,202.88,281.3,200.52,284.28,200.52z M300.98,217.13h-33.22c-1.21,0-2.22,0.99-2.22,2.18
				c0,1.21,1.01,2.25,2.22,2.25h13.78v2.68c-4.68,1.1-7.87,4.75-7.87,9c0,5.06,4.88,9.29,10.81,9.29c6.11,0,10.92-4.23,10.92-9.29
				c0-4.27-3.3-8.05-7.98-9.02v-2.66h13.56c1.27,0,2.25-1.04,2.25-2.25C303.23,218.12,302.25,217.13,300.98,217.13z M289.71,233.24
				c0,2.7-2.36,4.94-5.35,4.94c-2.79,0-5.23-2.27-5.23-4.94c0-2.89,2.52-5,5.34-5C287.51,228.24,289.71,230.4,289.71,233.24z"/>
			<path class="st6" d="M339.08,225.3c0,1.53-1.11,2.73-2.66,2.73l0,0c-1.53,0-2.74-1.2-2.74-2.73v-25.8c0-1.5,1.21-2.58,2.74-2.58
				l0,0c1.55,0,2.66,1.08,2.66,2.58V225.3z"/>
			<path class="st6" d="M330.11,217.03L330.11,217.03c-2.65-1.3-4.52-2.35-6.09-4.24c-1.48-1.86-2.64-4.54-2.64-7.3v-1.65h6.19
				c1.23,0,2.25-0.9,2.25-2.13c0-1.23-1.02-2.22-2.25-2.22h-17.81c-1.26,0-2.26,0.99-2.26,2.22c0,1.24,1,2.13,2.26,2.13h5.85v1.76
				c0,2.61-1.12,4.93-2.39,6.88c-1.68,2.42-3.74,4.25-6.13,5.66c-0.86,0.55-1.12,2.07-0.53,3.01c0.75,1.45,2.24,1.54,3.48,0.9
				l0.24-0.1c2.65-1.49,3.35-2.31,5.34-4.38c1.82-1.77,2.71-3.52,3.09-4.4c0.61,1.02,1.99,3.09,3.65,4.4
				c1.65,1.46,2.71,2.18,5.04,3.32h-0.01l0.2,0.1c1.26,0.48,2.68-0.1,3.18-1.31C331.18,218.78,330.84,217.44,330.11,217.03z"/>
			<path class="st6" d="M337.72,235.7c0,0-15.59,0-15.67,0c-1.43,0-1.37-1.14-1.37-1.14v-6.19c0-1.48-1.18-2.7-2.65-2.7
				c-1.52,0-2.75,1.23-2.75,2.7v8.62c0,2.08,1.31,3.41,3.76,3.41h18.68c1.1,0,2.1-1.04,2.1-2.24
				C339.83,236.78,338.83,235.7,337.72,235.7z"/>
		</g>
	</g>
</g>
</svg>
